<svg width="258" height="258" viewBox="0 0 258 258" fill="none" xmlns="http://www.w3.org/2000/svg">
<g clip-path="url(#clip0_3800_1040)">
<path d="M129 258C200.245 258 258 200.245 258 129C258 57.7553 200.245 0 129 0C57.7553 0 0 57.7553 0 129C0 200.245 57.7553 258 129 258Z" fill="#6F41D8"/>
<path d="M170.054 102.337C167.079 100.604 163.217 100.604 159.944 102.337L136.732 115.673L120.97 124.364L97.7578 137.691C94.7827 139.433 90.9208 139.433 87.6474 137.691L69.2004 127.259C66.2254 125.525 64.1452 122.34 64.1452 118.857V98.2819C64.1452 94.8069 65.927 91.6222 69.2004 89.8807L87.341 79.7381C90.3242 77.9966 94.1942 77.9966 97.4675 79.7381L115.608 89.8807C118.591 91.6222 120.671 94.8069 120.671 98.2819V111.617L136.434 102.628V89.3002C136.451 87.5693 135.988 85.8674 135.095 84.3841C134.203 82.9009 132.916 81.6944 131.378 80.8991L97.7578 61.7749C94.7827 60.0334 90.9208 60.0334 87.6474 61.7749L53.4302 80.8991C51.8926 81.6944 50.6059 82.9009 49.7134 84.3841C48.8209 85.8674 48.3576 87.5693 48.375 89.3002V127.839C48.375 131.322 50.1568 134.507 53.4302 136.248L87.6474 155.372C90.6225 157.106 94.4925 157.106 97.7578 155.372L120.97 142.327L136.732 133.346L159.944 120.309C162.919 118.567 166.781 118.567 170.054 120.309L188.203 130.451C191.186 132.185 193.258 135.369 193.258 138.852V159.428C193.258 162.903 191.484 166.087 188.203 167.829L170.062 178.262C167.079 180.003 163.209 180.003 159.944 178.262L141.795 168.119C138.812 166.378 136.732 163.193 136.732 159.718V146.383L120.97 155.372V168.7C120.97 172.175 122.752 175.367 126.025 177.101L160.242 196.225C163.217 197.967 167.079 197.967 170.353 196.225L204.57 177.101C207.545 175.367 209.625 172.183 209.625 168.7V130.161C209.642 128.43 209.179 126.728 208.287 125.245C207.394 123.762 206.107 122.555 204.57 121.76L170.062 102.337H170.054Z" fill="white"/>
</g>
<defs>
<clipPath id="clip0_3800_1040">
<rect width="258" height="258" fill="white"/>
</clipPath>
</defs>
</svg>
